<svg id="Capa_1" enable-background="new 0 0 508 508" height="512" viewBox="0 0 508 508" width="512" xmlns="http://www.w3.org/2000/svg"><g><path d="m433.605 74.395c-47.974-47.975-111.759-74.395-179.605-74.395s-131.631 26.42-179.605 74.395c-47.975 47.974-74.395 111.759-74.395 179.605s26.42 131.631 74.395 179.605c47.974 47.975 111.759 74.395 179.605 74.395s131.631-26.42 179.605-74.395c47.975-47.974 74.395-111.759 74.395-179.605s-26.42-131.631-74.395-179.605zm43.817 163.605h-83.336c-5.383-47.437-34.394-87.807-74.949-109.022l27.601-78.861c72.763 33.229 124.756 104.291 130.684 187.883zm-223.422 127c-61.206 0-111-49.794-111-111s49.794-111 111-111 111 49.794 111 111-49.794 111-111 111zm64.661-325.472-27.462 78.462c-11.856-3.246-24.327-4.99-37.199-4.99-14.247 0-28.004 2.132-40.978 6.08l-34.234-76.075c23.52-8.41 48.838-13.005 75.212-13.005 22.474 0 44.179 3.341 64.661 9.528zm-167.38 15.453 34.138 75.862c-38.748 21.663-66.276 61.075-71.505 107.158h-83.336c5.653-79.718 53.2-148.039 120.703-183.02zm-120.831 213.019h83.244c2.656 26.817 12.86 51.445 28.447 71.734l-58.976 58.976c-30.313-35.732-49.637-81.054-52.715-130.71zm73.596 152.255 58.787-58.787c24.6 20.901 56.434 33.532 91.167 33.532 32.805 0 63.029-11.261 87.01-30.121l60.208 57.803c-39.396 34.428-90.911 55.318-147.218 55.318-57.619 0-110.221-21.874-149.954-57.745zm318.405-18.776-59.94-57.545c17.474-21.048 28.953-47.239 31.795-75.934h83.244c-3.158 50.947-23.415 97.335-55.099 133.479z"/></g></svg>